<?xml version="1.0" encoding="utf-8"?>
<!-- Generator: Adobe Illustrator 17.0.0, SVG Export Plug-In . SVG Version: 6.00 Build 0)  -->
<!DOCTYPE svg PUBLIC "-//W3C//DTD SVG 1.1//EN" "http://www.w3.org/Graphics/SVG/1.1/DTD/svg11.dtd">
<svg version="1.1" id="Layer_1" xmlns="http://www.w3.org/2000/svg" xmlns:xlink="http://www.w3.org/1999/xlink" x="0px" y="0px"
	 width="256px" height="256px" viewBox="0 0 256 256" enable-background="new 0 0 256 256" xml:space="preserve">
<path id="save" d="M216.5,192h-168c-6.624,0-12-5.376-12-12V12c0-6.624,5.376-12,12-12h144l36,36v144
	C228.5,186.624,223.124,192,216.5,192z M84.5,162c0,3.318,2.688,6,6,6h84c3.318,0,6-2.682,6-6v-48c0-3.318-2.682-6-6-6h-84
	c-3.312,0-6,2.682-6,6V162z M168.5,30c0-3.318-2.682-6-6-6s-6,2.682-6,6v18c0,3.318,2.682,6,6,6s6-2.682,6-6V30z M204.5,42l-18-18
	h-6v42c0,3.318-2.682,6-6,6h-84c-3.312,0-6-2.682-6-6V24h-18c-3.312,0-6,2.682-6,6v132c0,3.318,2.688,6,6,6h6v-66
	c0-3.318,2.688-6,6-6h108c3.318,0,6,2.682,6,6v66h6c3.318,0,6-2.682,6-6V42z"/>
</svg>
