<?xml version="1.0" encoding="utf-8"?>
<!-- Generator: Adobe Illustrator 17.0.0, SVG Export Plug-In . SVG Version: 6.00 Build 0)  -->
<!DOCTYPE svg PUBLIC "-//W3C//DTD SVG 1.1//EN" "http://www.w3.org/Graphics/SVG/1.1/DTD/svg11.dtd">
<svg version="1.1" id="Layer_1" xmlns="http://www.w3.org/2000/svg" xmlns:xlink="http://www.w3.org/1999/xlink" x="0px" y="0px"
	 width="256px" height="256px" viewBox="0 0 256 256" enable-background="new 0 0 256 256" xml:space="preserve">
<path id="snippet" d="M200.201,48.035h-31.59c-8.145-0.013-16.258-0.564-8.346-14.525c7.928-13.99,13.524-33.575-18.304-33.575
	c-31.826,0-26.23,19.586-18.302,33.575c7.912,13.962-0.202,14.513-8.347,14.525H80.83c-6.774,0-12.316,5.543-12.316,12.315v38.328
	c0,8.16,2.214,16.32-11.774,8.393c-13.987-7.929-36.255-13.526-36.255,18.302c0,31.825,22.267,26.23,36.257,18.302
	c13.989-7.928,11.774,0.233,11.774,8.394v27.674c0,6.774,5.543,12.316,12.316,12.316h34.434c8.161,0,16.322-3.265,8.395-17.254
	c-7.928-13.988-13.525-33.575,18.302-33.575s26.231,19.586,18.303,33.575c-7.926,13.989,0.234,17.255,8.395,17.255h31.541
	c6.774,0,12.316-5.543,12.316-12.316l-0.001-119.396C212.517,53.576,206.975,48.035,200.201,48.035z"/>
</svg>
