<?xml version="1.0" encoding="utf-8"?>
<!-- Generator: Adobe Illustrator 17.0.0, SVG Export Plug-In . SVG Version: 6.00 Build 0)  -->
<!DOCTYPE svg PUBLIC "-//W3C//DTD SVG 1.1//EN" "http://www.w3.org/Graphics/SVG/1.1/DTD/svg11.dtd">
<svg version="1.1" id="Layer_1" xmlns="http://www.w3.org/2000/svg" xmlns:xlink="http://www.w3.org/1999/xlink" x="0px" y="0px"
	 width="256px" height="256px" viewBox="0 0 256 256" enable-background="new 0 0 256 256" xml:space="preserve">
<path id="spinner" d="M260.5,103.998c-0.32-16.715-3.946-33.379-10.644-48.615c-6.676-15.25-16.366-29.064-28.261-40.48
	C209.707,3.479,195.609-5.552,180.349-11.51c-15.25-5.981-31.648-8.838-47.849-8.492c-16.203,0.321-32.333,3.844-47.084,10.339
	C70.654-3.189,57.28,6.204,46.232,17.731c-11.056,11.521-19.79,25.177-25.547,39.95c-5.777,14.765-8.531,30.63-8.185,46.317
	c0.322,15.69,3.741,31.287,10.034,45.551c6.272,14.275,15.369,27.207,26.527,37.887c11.152,10.688,24.368,19.126,38.654,24.68
	c14.279,5.577,29.611,8.226,44.785,7.882c15.177-0.323,30.241-3.639,44.019-9.729c13.787-6.071,26.279-14.87,36.592-25.661
	c10.32-10.785,18.461-23.559,23.814-37.358c3.259-8.364,5.47-17.1,6.636-25.95c0.311,0.018,0.625,0.03,0.941,0.03
	c8.836,0,16-7.163,16-16c0-0.449-0.024-0.893-0.059-1.333L260.5,103.998z M235.077,146.485c-5.868,13.3-14.371,25.35-24.794,35.295
	c-10.418,9.953-22.75,17.797-36.061,22.948c-13.308,5.169-27.573,7.613-41.722,7.27c-14.151-0.325-28.149-3.434-40.955-9.118
	c-12.813-5.667-24.421-13.873-33.998-23.928c-9.585-10.05-17.132-21.941-22.081-34.764c-4.968-12.822-7.307-26.554-6.966-40.19
	c0.326-13.638,3.332-27.103,8.813-39.422c5.465-12.325,13.374-23.492,23.061-32.703c9.682-9.217,21.133-16.468,33.468-21.214
	c12.336-4.765,25.535-7.001,38.658-6.661c13.125,0.327,26.057,3.229,37.891,8.508c11.838,5.263,22.564,12.876,31.406,22.195
	c8.849,9.315,15.803,20.323,20.348,32.172c4.561,11.849,6.694,24.516,6.355,37.125h0.059c-0.036,0.44-0.059,0.884-0.059,1.333
	c0,8.253,6.248,15.043,14.271,15.906C241.215,129.943,238.639,138.442,235.077,146.485z"/>
</svg>
