<?xml version="1.0" encoding="utf-8"?>
<!-- Generator: Adobe Illustrator 17.0.0, SVG Export Plug-In . SVG Version: 6.00 Build 0)  -->
<!DOCTYPE svg PUBLIC "-//W3C//DTD SVG 1.1//EN" "http://www.w3.org/Graphics/SVG/1.1/DTD/svg11.dtd">
<svg version="1.1" id="Layer_1" xmlns="http://www.w3.org/2000/svg" xmlns:xlink="http://www.w3.org/1999/xlink" x="0px" y="0px"
	 width="256px" height="256px" viewBox="0 0 256 256" enable-background="new 0 0 256 256" xml:space="preserve">
<path id="history" d="M132.5,0c-53.022,0-96,42.984-96,96s42.978,96,96,96s96-42.984,96-96S185.522,0,132.5,0z M132.5,168
	c-39.762,0-72-32.238-72-72s32.238-72,72-72s72,32.238,72,72S172.262,168,132.5,168z M174.5,84h-30V42c0-3.312-2.682-6-6-6h-12
	c-3.318,0-6,2.688-6,6v60c0,3.318,2.682,6,6,6h48c3.318,0,6-2.682,6-6V90C180.5,86.682,177.818,84,174.5,84z"/>
</svg>
