<?xml version="1.0" encoding="utf-8"?>
<!-- Generator: Adobe Illustrator 17.0.0, SVG Export Plug-In . SVG Version: 6.00 Build 0)  -->
<!DOCTYPE svg PUBLIC "-//W3C//DTD SVG 1.1//EN" "http://www.w3.org/Graphics/SVG/1.1/DTD/svg11.dtd">
<svg version="1.1" id="Layer_1" xmlns="http://www.w3.org/2000/svg" xmlns:xlink="http://www.w3.org/1999/xlink" x="0px" y="0px"
	 width="256px" height="256px" viewBox="0 0 256 256" enable-background="new 0 0 256 256" xml:space="preserve">
<path id="link" d="M240.936,41.781l-54.218-54.218c-4.987-4.986-13.082-4.986-18.068,0l-54.218,54.218c-5,4.986-5,13.082,0,18.082
	l9.027,9.027l54.219-54.218l36.15,36.15l-54.219,54.218l9.04,9.04c4.986,4.987,13.082,4.987,18.068,0l54.218-54.218
	C245.923,54.863,245.923,46.767,240.936,41.781z M141.541,123.108l-54.218,54.218l-36.15-36.15l54.218-54.218l-9.04-9.04
	c-4.986-4.987-13.082-4.987-18.068,0l-54.219,54.218c-4.986,5-4.986,13.095,0,18.082l54.218,54.218
	c4.986,4.986,13.082,4.986,18.068,0l54.218-54.218c5-4.986,5-13.082,0-18.082L141.541,123.108z M96.35,132.136
	c5,5,13.082,5,18.082,0l54.218-54.218c4.986-4.987,4.986-13.069,0-18.055c-5-5-13.082-5-18.082,0L96.35,114.081
	C91.364,119.068,91.364,127.149,96.35,132.136z"/>
</svg>
