<?xml version="1.0" encoding="utf-8"?>
<!-- Generator: Adobe Illustrator 17.0.0, SVG Export Plug-In . SVG Version: 6.00 Build 0)  -->
<!DOCTYPE svg PUBLIC "-//W3C//DTD SVG 1.1//EN" "http://www.w3.org/Graphics/SVG/1.1/DTD/svg11.dtd">
<svg version="1.1" id="Layer_1" xmlns="http://www.w3.org/2000/svg" xmlns:xlink="http://www.w3.org/1999/xlink" x="0px" y="0px"
	 width="256px" height="256px" viewBox="0 0 256 256" enable-background="new 0 0 256 256" xml:space="preserve">
<path id="preview" d="M132.5,0C61.812,0,4.5,94.752,4.5,94.752S61.812,192,132.5,192s128-97.248,128-97.248S203.188,0,132.5,0z
	 M132.5,160c-35.344,0-64-28.656-64-64s28.656-64,64-64s64,28.656,64,64S167.844,160,132.5,160z M100.5,96c0,17.673,14.327,32,32,32
	s32-14.327,32-32s-14.327-32-32-32S100.5,78.327,100.5,96z"/>
</svg>
