<?xml version="1.0" encoding="utf-8"?>
<!-- Generator: Adobe Illustrator 17.0.0, SVG Export Plug-In . SVG Version: 6.00 Build 0)  -->
<!DOCTYPE svg PUBLIC "-//W3C//DTD SVG 1.1//EN" "http://www.w3.org/Graphics/SVG/1.1/DTD/svg11.dtd">
<svg version="1.1" id="Layer_1" xmlns="http://www.w3.org/2000/svg" xmlns:xlink="http://www.w3.org/1999/xlink" x="0px" y="0px"
	 width="256px" height="256px" viewBox="0 0 256 256" enable-background="new 0 0 256 256" xml:space="preserve">
<path id="preview-alt" d="M60.735,77.094c0-29.731,24.656-53.84,55.072-53.84c30.417,0,55.072,24.108,55.072,53.84
	c0,29.737-24.662,53.846-55.072,53.846C85.385,130.94,60.735,106.832,60.735,77.094z M36.5,77.094
	c0,42.823,35.504,77.539,79.307,77.539c12.55,0,24.421-2.85,34.969-7.926l39.714,41.56c4.51,4.721,13.843,5.021,18.666,0.601
	l15.96-14.625c4.823-4.42,5.136-13.567,0.625-18.287L185.6,113.951c6.068-10.957,9.508-23.513,9.508-36.851
	c0-42.829-35.504-77.539-79.301-77.539C72.004-0.439,36.5,34.271,36.5,77.094z"/>
</svg>
